<?xml version="1.0" encoding="UTF-8" standalone="no"?>
<svg
   xmlns:dc="http://purl.org/dc/elements/1.1/"
   xmlns:cc="http://creativecommons.org/ns#"
   xmlns:rdf="http://www.w3.org/1999/02/22-rdf-syntax-ns#"
   xmlns:svg="http://www.w3.org/2000/svg"
   xmlns="http://www.w3.org/2000/svg"
   xmlns:sodipodi="http://sodipodi.sourceforge.net/DTD/sodipodi-0.dtd"
   xmlns:inkscape="http://www.inkscape.org/namespaces/inkscape"
   fill="#000000"
   height="24"
   viewBox="0 0 24 24"
   width="24"
   id="svg2"
   version="1.1"
   inkscape:version="0.91 r13725"
   sodipodi:docname="coreDeathBell_singlePath.svg">
  <metadata
     id="metadata10">
    <rdf:RDF>
      <cc:Work
         rdf:about="">
        <dc:format>image/svg+xml</dc:format>
        <dc:type
           rdf:resource="http://purl.org/dc/dcmitype/StillImage" />
        <dc:title></dc:title>
      </cc:Work>
    </rdf:RDF>
  </metadata>
  <defs
     id="defs8" />
  <sodipodi:namedview
     pagecolor="#ffffff"
     bordercolor="#666666"
     borderopacity="1"
     objecttolerance="10"
     gridtolerance="10"
     guidetolerance="10"
     inkscape:pageopacity="0"
     inkscape:pageshadow="2"
     inkscape:window-width="1680"
     inkscape:window-height="1026"
     id="namedview6"
     showgrid="false"
     inkscape:zoom="28.271831"
     inkscape:cx="10.346658"
     inkscape:cy="11.829238"
     inkscape:window-x="0"
     inkscape:window-y="54"
     inkscape:window-maximized="1"
     inkscape:current-layer="svg2" />
  <path
     style="fill:#000000;fill-opacity:1;fill-rule:nonzero"
     d="m 11.912069,17.020816 -0.861922,-0.214808 0.352035,-1.410352 c -0.223399,-0.05547 -0.451709,-0.11441 -0.68689,-0.17823 L 10.362029,16.634409 9.5010866,16.419606 9.8577842,14.987398 C 9.6564832,14.935834 9.4519851,14.8811 9.2433164,14.82881 L 8.1216605,14.54919 8.5495573,13.562554 c 0,0 0.6350928,0.16889 0.6264928,0.15638 0.244025,0.06039 0.3522781,-0.09869 0.3950021,-0.20474 l 0.5636458,-2.259763 c 0.03167,0.0076 0.06233,0.01538 0.09108,0.02258 -0.03438,-0.01375 -0.06556,-0.02255 -0.08961,-0.02875 L 10.53832,9.6350957 C 10.54887,9.4519527 10.48578,9.2209529 10.136692,9.1337979 10.150192,9.1247179 9.5106857,8.9781578 9.5106857,8.9781578 L 9.7399752,8.05756 l 1.1887158,0.2968129 -0.0012,0.00456 c 0.178722,0.044433 0.362837,0.086642 0.550393,0.1293665 l 0.353268,-1.4155126 0.86143,0.2148087 -0.346144,1.3877668 c 0.231253,0.052791 0.463983,0.106041 0.690573,0.162516 l 0.343688,-1.3786853 0.861924,0.2148083 -0.353016,1.4159998 c 1.088267,0.3748676 1.884154,0.9367999 1.727776,1.9821129 l 1.54e-4,-7.9e-5 c -0.113172,0.765201 -0.537383,1.135644 -1.100544,1.265514 0.773299,0.402607 1.166826,1.020023 0.791959,2.090371 -0.465209,1.329346 -1.570417,1.441537 -3.04018,1.163389 L 11.912069,17.020816 12,19 c 2.666667,0 8,0 8,0 l 0,-1 -2,-2 0,-5 C 18,7.93 16.36,5.36 13.5,4.68 L 13.5,4 C 13.5,3.17 12.83,2.5 12,2.5 11.17,2.5 10.5,3.17 10.5,4 l 0,0.68 C 7.63,5.36 6,7.92 6,11 l 0,5 -2,2 0,1 c 0,0 5.3333333,0 8,0"
     id="path4235" />
  <path
     style="fill:#000000;fill-opacity:1;fill-rule:nonzero"
     d="m 13.648038,13.833659 c -0.26636,1.070348 -2.068522,0.491723 -2.652795,0.346636 l 0.473315,-1.897416 c 0.584272,0.145822 2.457871,0.434523 2.17948,1.55078 z"
     id="path4233" />
  <path
     style="fill:#000000;fill-opacity:1;fill-rule:nonzero"
     d="m 13.914641,11.056642 c -0.243034,0.973627 -1.742993,0.478956 -2.22956,0.357682 l 0.42912,-1.7209013 c 0.486566,0.12128 2.053547,0.3476153 1.80044,1.3632193 z"
     id="path4231" />
  <path
     style="fill:#000000;fill-opacity:1;fill-rule:nonzero"
     d="m 12,22 c 1.1,0 2,-0.9 2,-2 l -4,0 c 0,1.1 0.89,2 2,2 z"
     id="symbol" />
</svg>
